<svg version="1.1" xmlns="http://www.w3.org/2000/svg" viewBox="-6.000000995395683 -6.961359024734864 12.000001990791366 13.922718049469728" fill="none" stroke="black" stroke-width="0.6%" vector-effect="non-scaling-stroke">
    <path d="M -4.94168 -5.85426 C -4.94 -5.8 -4.89 -5.75 -4.83461 -5.74721 L 4.8929 -5.74721 C 4.95 -5.75 5 -5.8 5 -5.85426 C 5 -5.91 4.95 -5.96 4.8929 -5.96136 L -4.83461 -5.96136 C -4.89 -5.96 -4.94 -5.91 -4.94168 -5.85426 Z" />
    <path d="M -4.94168 -4.64323 C -4.94 -4.58 -4.89 -4.54 -4.83461 -4.53613 L 4.8929 -4.53613 C 4.95 -4.54 5 -4.58 5 -4.64323 C 5 -4.7 4.95 -4.75 4.8929 -4.75028 L -4.83461 -4.75028 C -4.89 -4.75 -4.94 -4.7 -4.94168 -4.64323 Z" />
    <path d="M 3.71184 -4.94004 C 3.71 -4.9 3.69 -4.87 3.66041 -4.85401 C 3.63 -4.84 3.6 -4.83 3.57247 -4.83256 C 3.41 -4.83 3.08 -4.83 2.91336 -4.83256 C 2.85 -4.83 2.8 -4.84 2.74944 -4.8641 C 2.7 -4.89 2.67 -4.95 2.6726 -5.00122 C 2.67 -5.15 2.67 -5.43 2.6726 -5.57892 C 2.67 -5.63 2.71 -5.66 2.73595 -5.67299 C 2.76 -5.69 2.79 -5.69 2.82196 -5.68943 C 2.85 -5.69 2.88 -5.69 2.90876 -5.67359 C 2.94 -5.66 2.97 -5.63 2.97308 -5.57975 C 2.97 -5.52 2.97 -5.43 2.97308 -5.35731 C 3.13 -5.36 3.35 -5.36 3.47956 -5.35731 C 3.51 -5.36 3.54 -5.35 3.56543 -5.33517 C 3.59 -5.32 3.62 -5.29 3.61566 -5.24782 C 3.62 -5.21 3.6 -5.18 3.56672 -5.1596 C 3.54 -5.14 3.51 -5.14 3.47956 -5.13732 C 3.35 -5.14 3.13 -5.14 2.97308 -5.13732 C 2.97 -5.11 2.97 -5.08 2.97308 -5.05444 C 3.13 -5.05 3.42 -5.05 3.57247 -5.05444 C 3.6 -5.05 3.63 -5.05 3.66124 -5.03216 C 3.69 -5.02 3.71 -4.98 3.71179 -4.94752 C 3.71 -4.99 3.74 -5.02 3.76097 -5.03202 C 3.79 -5.05 3.82 -5.06 3.8479 -5.05532 C 3.92 -5.06 4.05 -5.06 4.15335 -5.05532 C 4.15 -5.21 4.15 -5.45 4.15335 -5.58063 C 4.15 -5.63 4.19 -5.66 4.2191 -5.674 C 4.25 -5.69 4.28 -5.69 4.30442 -5.68943 C 4.33 -5.69 4.36 -5.69 4.38974 -5.674 C 4.42 -5.66 4.46 -5.63 4.45549 -5.58063 C 4.46 -5.45 4.46 -5.21 4.45549 -5.05532 C 4.56 -5.06 4.68 -5.06 4.76099 -5.05532 C 4.79 -5.06 4.82 -5.05 4.84585 -5.03216 C 4.87 -5.02 4.9 -4.99 4.89553 -4.94481 C 4.9 -4.86 4.82 -4.83 4.76099 -4.83256 C 4.53 -4.83 4.07 -4.83 3.84615 -4.83256 C 3.79 -4.83 3.71 -4.86 3.71184 -4.94004 Z" />
    <path d="M -3.73792 -5.51772 C -3.72 -5.49 -3.71 -5.45 -3.71316 -5.41818 C -3.71 -5.35 -3.75 -5.28 -3.80784 -5.2399 C -3.81 -5.24 -3.82 -5.23 -3.82784 -5.2271 C -3.78 -5.19 -3.76 -5.13 -3.75806 -5.07346 C -3.76 -4.98 -3.82 -4.92 -3.8982 -4.88007 C -3.98 -4.84 -4.08 -4.83 -4.20626 -4.82795 C -4.3 -4.83 -4.5 -4.83 -4.59806 -4.82795 C -4.66 -4.83 -4.72 -4.83 -4.76238 -4.86092 C -4.81 -4.89 -4.84 -4.94 -4.8372 -4.99877 C -4.84 -5.13 -4.84 -5.39 -4.8372 -5.5186 C -4.84 -5.57 -4.81 -5.63 -4.76209 -5.65591 C -4.72 -5.68 -4.66 -5.69 -4.59806 -5.68855 C -4.5 -5.69 -4.29 -5.69 -4.18799 -5.68855 C -4.05 -5.69 -3.94 -5.67 -3.85878 -5.62869 C -3.81 -5.61 -3.77 -5.57 -3.74875 -5.53579 C -3.75 -5.55 -3.76 -5.56 -3.75863 -5.57791 C -3.76 -5.62 -3.73 -5.65 -3.70899 -5.66162 C -3.69 -5.68 -3.66 -5.68 -3.64022 -5.68583 C -3.64 -5.69 -3.64 -5.69 -3.63993 -5.68583 C -3.63 -5.69 -3.61 -5.69 -3.5959 -5.68943 C -3.56 -5.69 -3.5 -5.68 -3.47101 -5.631 C -3.47 -5.63 -3.47 -5.63 -3.47216 -5.63288 C -3.45 -5.59 -3.4 -5.53 -3.36554 -5.47648 C -3.23 -5.48 -3.01 -5.48 -2.86611 -5.47648 C -2.83 -5.53 -2.78 -5.59 -2.75705 -5.6333 C -2.76 -5.63 -2.76 -5.63 -2.7569 -5.63344 C -2.76 -5.63 -2.76 -5.63 -2.75633 -5.63431 C -2.72 -5.68 -2.67 -5.69 -2.62957 -5.69025 C -2.62 -5.69 -2.6 -5.69 -2.58784 -5.68653 C -2.57 -5.68 -2.54 -5.68 -2.52165 -5.66493 C -2.5 -5.65 -2.47 -5.63 -2.46856 -5.57975 C -2.47 -5.56 -2.48 -5.53 -2.49374 -5.5163 C -2.49 -5.52 -2.49 -5.52 -2.4887 -5.52252 C -2.6 -5.37 -2.83 -5.06 -2.94036 -4.89932 C -2.98 -4.84 -3.06 -4.83 -3.11604 -4.82713 C -3.17 -4.83 -3.25 -4.84 -3.28841 -4.89918 C -3.29 -4.9 -3.29 -4.9 -3.28914 -4.90006 C -3.29 -4.9 -3.29 -4.9 -3.28928 -4.90033 C -3.4 -5.06 -3.62 -5.36 -3.73792 -5.51772 Z" />
    <path d="M -2.46856 -5.57975 C -2.47 -5.56 -2.48 -5.53 -2.49374 -5.5163" />
    <path d="M -2.4887 -5.52252 C -2.6 -5.37 -2.83 -5.06 -2.94036 -4.89932" />
    <path d="M -3.11417 -5.11545 C -3.09 -5.15 -3.05 -5.2 -3.01532 -5.25731 C -3.09 -5.26 -3.14 -5.26 -3.21518 -5.25731 C -3.18 -5.2 -3.14 -5.15 -3.11417 -5.11545 Z" />
    <path d="M -4.54008 -5.04712 C -4.45 -5.05 -4.3 -5.05 -4.21792 -5.04712 C -4.15 -5.05 -4.1 -5.06 -4.0772 -5.06766 C -4.06 -5.08 -4.06 -5.08 -4.06007 -5.08451 C -4.06 -5.09 -4.06 -5.1 -4.08137 -5.10799 C -4.1 -5.12 -4.15 -5.13 -4.21461 -5.13115 C -4.3 -5.13 -4.43 -5.13 -4.54008 -5.13115 C -4.54 -5.1 -4.54 -5.08 -4.54008 -5.04712 Z" />
    <path d="M -4.54008 -5.3494 C -4.43 -5.35 -4.29 -5.35 -4.20957 -5.3494 C -4.13 -5.35 -4.08 -5.36 -4.04784 -5.37532 C -4.02 -5.39 -4.02 -5.4 -4.02022 -5.40985 C -4.02 -5.42 -4.02 -5.43 -4.04712 -5.44337 C -4.07 -5.46 -4.13 -5.47 -4.20626 -5.46925 C -4.29 -5.47 -4.45 -5.47 -4.54008 -5.46925 C -4.54 -5.43 -4.54 -5.39 -4.54008 -5.3494 Z" />
    <path d="M -1.4309 -5.45792 C -1.43 -5.46 -1.43 -5.47 -1.42711 -5.46639 C -1.43 -5.47 -1.42 -5.47 -1.42265 -5.47588 C -1.4 -5.52 -1.36 -5.58 -1.27028 -5.6205 C -1.18 -5.66 -1.06 -5.69 -0.86367 -5.68897 C -0.71 -5.69 -0.58 -5.67 -0.49169 -5.62524 C -0.4 -5.58 -0.33 -5.51 -0.33072 -5.41731 C -0.33 -5.37 -0.34 -5.33 -0.37115 -5.2923 C -0.4 -5.26 -0.43 -5.23 -0.47488 -5.21301 C -0.56 -5.18 -0.66 -5.16 -0.79415 -5.14165 C -0.79 -5.14 -0.79 -5.14 -0.79461 -5.14165 C -0.83 -5.14 -0.89 -5.13 -0.91745 -5.12839 C -0.92 -5.13 -0.92 -5.13 -0.91759 -5.12825 C -1.01 -5.12 -1.06 -5.11 -1.08537 -5.09385 C -1.1 -5.09 -1.1 -5.09 -1.09817 -5.08552 C -1.1 -5.09 -1.1 -5.09 -1.0979 -5.08322 C -1.1 -5.08 -1.11 -5.09 -1.07257 -5.07171 C -1.04 -5.06 -0.98 -5.04 -0.88867 -5.04463 C -0.71 -5.04 -0.68 -5.09 -0.67112 -5.10665 C -0.67 -5.11 -0.67 -5.11 -0.6661 -5.1149 C -0.65 -5.14 -0.62 -5.15 -0.59948 -5.16135 C -0.58 -5.17 -0.56 -5.17 -0.53501 -5.17056 C -0.52 -5.17 -0.51 -5.17 -0.49905 -5.1684 C -0.5 -5.17 -0.5 -5.17 -0.49905 -5.16826 C -0.48 -5.17 -0.45 -5.16 -0.42939 -5.14809 C -0.41 -5.14 -0.37 -5.11 -0.37386 -5.06195 C -0.37 -5.04 -0.38 -5.02 -0.39228 -5.00738 C -0.45 -4.91 -0.58 -4.83 -0.88867 -4.82841 C -1.05 -4.83 -1.17 -4.85 -1.25748 -4.89214 C -1.34 -4.93 -1.4 -5 -1.40164 -5.08322 C -1.4 -5.12 -1.39 -5.16 -1.36798 -5.1986 C -1.35 -5.23 -1.31 -5.26 -1.2753 -5.27702 C -1.2 -5.32 -1.1 -5.33 -0.97634 -5.34824 C -0.94 -5.35 -0.88 -5.36 -0.84351 -5.36335 C -0.84 -5.36 -0.84 -5.36 -0.84323 -5.36335 C -0.75 -5.37 -0.69 -5.39 -0.65634 -5.40106 C -0.64 -5.41 -0.64 -5.41 -0.63691 -5.41344 C -0.64 -5.41 -0.64 -5.41 -0.63617 -5.41818 C -0.64 -5.42 -0.63 -5.43 -0.67443 -5.44323 C -0.71 -5.46 -0.78 -5.47 -0.87201 -5.47187 C -0.99 -5.47 -1.05 -5.46 -1.08307 -5.43877 C -1.11 -5.42 -1.12 -5.41 -1.13533 -5.38522 C -1.14 -5.38 -1.14 -5.38 -1.13616 -5.38365 C -1.15 -5.35 -1.18 -5.34 -1.20508 -5.32927 C -1.23 -5.32 -1.25 -5.32 -1.27212 -5.31933 C -1.29 -5.32 -1.3 -5.32 -1.30666 -5.32149 C -1.31 -5.32 -1.31 -5.32 -1.30942 -5.32177 C -1.33 -5.32 -1.36 -5.33 -1.37949 -5.34295 C -1.39 -5.35 -1.42 -5.37 -1.42775 -5.39385 C -1.43 -5.36 -1.44 -5.32 -1.46697 -5.2923 C -1.49 -5.26 -1.53 -5.23 -1.57071 -5.21301 C -1.65 -5.18 -1.76 -5.16 -1.88999 -5.14165 C -1.89 -5.14 -1.89 -5.14 -1.89042 -5.14165 C -1.92 -5.14 -1.98 -5.13 -2.0133 -5.12839 C -2.01 -5.13 -2.01 -5.13 -2.01345 -5.12825 C -2.1 -5.12 -2.16 -5.11 -2.18107 -5.09385 C -2.19 -5.09 -2.19 -5.09 -2.19388 -5.08552 C -2.19 -5.09 -2.19 -5.09 -2.19359 -5.08322 C -2.19 -5.08 -2.2 -5.09 -2.16827 -5.07171 C -2.14 -5.06 -2.07 -5.04 -1.98438 -5.04463 C -1.81 -5.04 -1.78 -5.09 -1.76697 -5.10665 C -1.77 -5.11 -1.76 -5.11 -1.76193 -5.1149 C -1.74 -5.14 -1.72 -5.15 -1.69517 -5.16135 C -1.67 -5.17 -1.65 -5.17 -1.63071 -5.17056 C -1.62 -5.17 -1.6 -5.17 -1.59488 -5.1684 C -1.59 -5.17 -1.59 -5.17 -1.59488 -5.16826 C -1.57 -5.17 -1.55 -5.16 -1.52524 -5.14809 C -1.51 -5.14 -1.47 -5.11 -1.4697 -5.06195 C -1.47 -5.04 -1.48 -5.02 -1.48812 -5.00738 C -1.54 -4.91 -1.68 -4.83 -1.98438 -4.82841 C -2.15 -4.83 -2.27 -4.85 -2.35316 -4.89214 C -2.44 -4.93 -2.5 -5 -2.49748 -5.08322 C -2.5 -5.12 -2.49 -5.16 -2.46381 -5.1986 C -2.44 -5.23 -2.41 -5.26 -2.37114 -5.27702 C -2.3 -5.32 -2.2 -5.33 -2.07215 -5.34824 C -2.04 -5.35 -1.97 -5.36 -1.93934 -5.36335 C -1.94 -5.36 -1.94 -5.36 -1.93906 -5.36335 C -1.84 -5.37 -1.78 -5.39 -1.75215 -5.40106 C -1.74 -5.41 -1.73 -5.41 -1.73272 -5.41344 C -1.73 -5.41 -1.73 -5.41 -1.732 -5.41818 C -1.73 -5.42 -1.73 -5.43 -1.77028 -5.44323 C -1.81 -5.46 -1.88 -5.47 -1.96783 -5.47187 C -2.08 -5.47 -2.15 -5.46 -2.17891 -5.43877 C -2.21 -5.42 -2.22 -5.41 -2.23114 -5.38522 C -2.23 -5.38 -2.23 -5.38 -2.23201 -5.38365 C -2.25 -5.35 -2.28 -5.34 -2.30093 -5.32927 C -2.32 -5.32 -2.35 -5.32 -2.36798 -5.31933 C -2.38 -5.32 -2.39 -5.32 -2.40251 -5.32149 C -2.4 -5.32 -2.4 -5.32 -2.40525 -5.32177 C -2.43 -5.32 -2.45 -5.33 -2.47532 -5.34295 C -2.5 -5.35 -2.53 -5.38 -2.53057 -5.42969 C -2.53 -5.46 -2.52 -5.47 -2.5228 -5.46639 C -2.52 -5.47 -2.52 -5.47 -2.51834 -5.47588 C -2.5 -5.52 -2.45 -5.58 -2.36611 -5.6205 C -2.28 -5.66 -2.15 -5.69 -1.95949 -5.68897 C -1.8 -5.69 -1.68 -5.67 -1.58754 -5.62524 C -1.51 -5.59 -1.45 -5.53 -1.4309 -5.45792 Z" />
    <path d="M 1.37867 -5.57276 C 1.38 -5.55 1.37 -5.54 1.36354 -5.52726 C 1.36 -5.53 1.36 -5.52 1.35907 -5.52077 C 1.35 -5.51 1.33 -5.48 1.31892 -5.46883 C 1.32 -5.47 1.32 -5.47 1.31782 -5.4674 C 1.32 -5.47 1.32 -5.47 1.31763 -5.46713 C 1.26 -5.39 1.22 -5.33 1.17347 -5.2877 C 1.19 -5.28 1.2 -5.28 1.21247 -5.26739 C 1.27 -5.23 1.32 -5.17 1.31911 -5.0858 C 1.32 -5 1.26 -4.93 1.18296 -4.88896 C 1.1 -4.85 1 -4.83 0.87419 -4.83256 C 0.78 -4.83 0.58 -4.83 0.48572 -4.83256 C 0.42 -4.83 0.37 -4.84 0.32139 -4.86479 C 0.27 -4.89 0.25 -4.95 0.24501 -5.00223 C 0.25 -5.15 0.25 -5.43 0.24501 -5.57892 C 0.25 -5.63 0.28 -5.66 0.30901 -5.67331 C 0.34 -5.69 0.37 -5.69 0.39607 -5.68943 C 0.42 -5.69 0.45 -5.69 0.48167 -5.67299 C 0.51 -5.66 0.54 -5.63 0.54369 -5.57975 C 0.54 -5.53 0.54 -5.44 0.54369 -5.36551 C 0.62 -5.37 0.72 -5.37 0.77791 -5.36551 C 0.85 -5.37 0.88 -5.38 0.91637 -5.40409 C 0.95 -5.43 0.99 -5.49 1.05058 -5.57602 C 1.05 -5.58 1.05 -5.58 1.05173 -5.57777 C 1.06 -5.59 1.08 -5.62 1.09331 -5.63588 C 1.13 -5.68 1.18 -5.69 1.2162 -5.68943 C 1.23 -5.69 1.25 -5.69 1.26353 -5.68583 C 1.26 -5.69 1.26 -5.69 1.26385 -5.68583 C 1.29 -5.68 1.31 -5.68 1.33131 -5.66235 C 1.35 -5.65 1.38 -5.62 1.37879 -5.58547 C 1.38 -5.63 1.41 -5.65 1.42814 -5.66162 C 1.45 -5.68 1.47 -5.68 1.49693 -5.68583 C 1.5 -5.69 1.5 -5.69 1.4972 -5.68583 C 1.51 -5.69 1.53 -5.69 1.54113 -5.68943 C 1.58 -5.69 1.63 -5.68 1.666 -5.631 C 1.67 -5.63 1.67 -5.63 1.66485 -5.63288 C 1.69 -5.59 1.74 -5.53 1.77162 -5.47648 C 1.91 -5.48 2.13 -5.48 2.27105 -5.47648 C 2.31 -5.53 2.35 -5.59 2.38008 -5.6333 C 2.38 -5.63 2.38 -5.63 2.38022 -5.63344 C 2.38 -5.63 2.38 -5.63 2.38082 -5.63431 C 2.41 -5.68 2.47 -5.69 2.50744 -5.69025 C 2.52 -5.69 2.54 -5.69 2.54929 -5.68653 C 2.57 -5.68 2.59 -5.68 2.6155 -5.66479 C 2.64 -5.65 2.67 -5.63 2.66845 -5.57975 C 2.67 -5.56 2.66 -5.53 2.64313 -5.51616 C 2.64 -5.52 2.65 -5.52 2.64829 -5.52252 C 2.54 -5.37 2.31 -5.06 2.19679 -4.89932 C 2.15 -4.84 2.08 -4.83 2.02095 -4.82713 C 1.96 -4.83 1.89 -4.84 1.84874 -4.89918 C 1.85 -4.9 1.85 -4.9 1.84801 -4.90006 C 1.85 -4.9 1.85 -4.9 1.84787 -4.90033 C 1.73 -5.06 1.51 -5.37 1.39706 -5.52049 C 1.4 -5.52 1.39 -5.52 1.39379 -5.52537 C 1.39 -5.54 1.38 -5.55 1.37867 -5.57276 Z" />
    <path d="M 2.66845 -5.57975 C 2.67 -5.56 2.66 -5.53 2.64313 -5.51616" />
    <path d="M 2.64829 -5.52252 C 2.54 -5.37 2.31 -5.06 2.19679 -4.89932" />
    <path d="M 2.02297 -5.11545 C 2.05 -5.15 2.08 -5.2 2.12169 -5.25731 C 2.05 -5.26 1.99 -5.26 1.92195 -5.25731 C 1.96 -5.2 2 -5.15 2.02297 -5.11545 Z" />
    <path d="M 0.54369 -5.05085 C 0.63 -5.05 0.78 -5.05 0.86429 -5.05085 C 0.93 -5.05 0.98 -5.06 0.99795 -5.073 C 1.02 -5.08 1.02 -5.09 1.01692 -5.0986 C 1.02 -5.1 1.02 -5.11 0.99132 -5.12291 C 0.96 -5.14 0.92 -5.15 0.85421 -5.14823 C 0.78 -5.15 0.64 -5.15 0.54369 -5.14823 C 0.54 -5.11 0.54 -5.08 0.54369 -5.05085 Z" />
    <path d="M 0.09607 5.96073 L -4.76757 5.96073 C -4.77 5.96 -4.77 5.96 -4.76898 5.96068 L -4.769 5.96068 C -4.78 5.96 -4.8 5.96 -4.81303 5.95618 C -4.83 5.95 -4.84 5.95 -4.85936 5.94187 C -4.87 5.94 -4.89 5.93 -4.90348 5.91685 C -4.92 5.91 -4.93 5.89 -4.9448 5.87853 C -4.96 5.87 -4.96 5.85 -4.97198 5.83857 C -4.98 5.82 -4.99 5.81 -4.99019 5.79408 C -5 5.78 -5 5.76 -4.99905 5.7424 C -5 5.72 -5 5.7 -4.99952 5.67542 C -5 5.42 -5 5.17 -4.99949 4.9118 C -5 4.9 -5 4.88 -4.9951 4.86805 C -4.99 4.85 -4.99 4.84 -4.98132 4.82292 C -4.98 4.81 -4.97 4.79 -4.95866 4.78153 C -4.95 4.77 -4.94 4.75 -4.92338 4.74126 C -4.91 4.73 -4.9 4.72 -4.8845 4.71283 C -4.87 4.7 -4.85 4.7 -4.83398 4.69094 C -4.82 4.69 -4.8 4.68 -4.78669 4.68207 C -4.76 4.68 -4.74 4.68 -4.72121 4.6813 L -4.29697 4.6813 C -4.29 4.68 -4.28 4.68 -4.27452 4.67954 C -4.26 4.68 -4.24 4.67 -4.22986 4.6688 C -4.21 4.66 -4.2 4.66 -4.18674 4.64722 C -4.18 4.64 -4.16 4.63 -4.15427 4.62085 C -4.14 4.61 -4.13 4.6 -4.12677 4.58693 C -4.12 4.57 -4.11 4.56 -4.10683 4.54757 C -4.1 4.53 -4.1 4.52 -4.09515 4.50079 C -4.09 4.49 -4.09 4.48 -4.09339 4.46629 C -4.09 4.14 -4.09 3.81 -4.09343 3.48028 C -4.09 3.47 -4.1 3.45 -4.09808 3.43871 C -4.1 3.42 -4.11 3.41 -4.11192 3.39682 C -4.12 3.38 -4.13 3.37 -4.13431 3.35882 C -4.14 3.35 -4.16 3.33 -4.16742 3.32375 C -4.18 3.31 -4.2 3.3 -4.21187 3.29526 C -4.23 3.29 -4.24 3.28 -4.25484 3.28038 C -4.27 3.28 -4.28 3.28 -4.29958 3.27527 C -4.46 3.28 -4.61 3.28 -4.76946 3.27519 C -4.78 3.28 -4.8 3.27 -4.81321 3.27073 C -4.83 3.27 -4.84 3.26 -4.85831 3.25687 C -4.87 3.25 -4.89 3.24 -4.90386 3.2311 C -4.92 3.22 -4.93 3.21 -4.9456 3.19216 C -4.96 3.18 -4.97 3.16 -4.97448 3.14832 C -4.98 3.13 -4.99 3.12 -4.99173 3.10294 C -4.99 3.09 -4.99 3.09 -4.99539 3.07644 L -4.99539 3.07644 C -5 3.07 -5 3.06 -4.99942 3.04729 C -5 3.02 -5 3 -4.99946 2.97866 L -4.99946 2.97866 C -5 2.94 -5 2.91 -4.99952 2.87298 C -5 2.66 -5 2.44 -4.99947 2.22034 C -5 2.21 -5 2.19 -4.99502 2.17661 C -4.99 2.16 -4.99 2.15 -4.98115 2.1315 C -4.97 2.12 -4.97 2.1 -4.95539 2.08594 C -4.94 2.07 -4.93 2.06 -4.91645 2.0442 C -4.9 2.03 -4.89 2.03 -4.87689 2.01753 C -4.86 2.01 -4.85 2 -4.83266 1.99952 C -4.82 1.99 -4.8 1.99 -4.78214 1.99079 C -4.77 1.99 -4.76 1.99 -4.74792 1.99054 C -3.12 1.99 -1.49 1.99 0.1454 1.99055 C 0.16 1.99 0.17 1.99 0.18915 1.99488 C 0.2 2 0.22 2 0.23474 2.00874 C 0.25 2.01 0.26 2.02 0.27652 2.03166 C 0.29 2.04 0.31 2.06 0.32126 2.07223 C 0.33 2.08 0.34 2.1 0.34891 2.11276 C 0.36 2.13 0.36 2.14 0.36701 2.15696 C 0.37 2.17 0.37 2.19 0.37589 2.20837 C 0.38 2.23 0.38 2.25 0.37639 2.2754 C 0.38 2.3 0.38 2.32 0.37658 2.34396 C 0.38 2.36 0.38 2.38 0.38446 2.39523 C 0.39 2.41 0.4 2.43 0.40304 2.43973 C 0.41 2.45 0.42 2.47 0.4343 2.48171 C 0.44 2.49 0.46 2.5 0.46998 2.51136 C 0.48 2.52 0.5 2.53 0.51311 2.53293 C 0.53 2.54 0.54 2.54 0.55322 2.54308 C 0.57 2.55 0.6 2.55 0.61795 2.54532 L 2.13343 2.54533 C 2.15 2.55 2.16 2.55 2.17718 2.54966 C 2.19 2.55 2.21 2.56 2.22277 2.56352 C 2.23 2.57 2.25 2.58 2.25675 2.58268 C 2.26 2.59 2.27 2.59 2.26875 2.58945 C 2.27 2.59 2.28 2.6 2.28022 2.60015 C 2.29 2.61 2.3 2.62 2.31049 2.6284 C 2.32 2.64 2.33 2.65 2.33716 2.66795 C 2.34 2.68 2.35 2.7 2.35517 2.71218 C 2.36 2.73 2.36 2.75 2.36391 2.76269 C 2.36 2.76 2.36 2.77 2.36395 2.76895 C 2.36 2.88 2.36 2.99 2.36441 3.10445 L 2.34002 3.13975 C 2.34 3.04 2.34 2.95 2.34002 2.85503 L 2.30935 2.89942 L 2.30935 3.18414 L 2.28011 3.22646 L 2.28011 2.94174 L 1.56959 3.97019 C 1.57 3.97 1.57 3.98 1.56959 3.97762 L 2.28011 5.00607 L 2.28011 5.00608 L 2.28011 4.72135 L 1.77778 3.99424 C 1.76 3.97 1.76 3.97 1.77778 3.95357 L 2.28012 3.22646 L 2.30935 3.18414 L 2.34002 3.13975 L 2.36441 3.10444 L 2.36441 5.17598 C 2.36 5.19 2.36 5.21 2.35991 5.21955 C 2.36 5.24 2.35 5.25 2.34569 5.26556 C 2.34 5.28 2.33 5.29 2.32248 5.30729 C 2.31 5.32 2.3 5.33 2.28823 5.34602 C 2.27 5.36 2.26 5.37 2.24202 5.37855 C 2.23 5.39 2.21 5.39 2.19747 5.3967 C 2.18 5.4 2.17 5.4 2.15074 5.40519 C 2.13 5.41 2.11 5.41 2.08455 5.40594 C 1.58 5.41 1.08 5.41 0.58288 5.40596 C 0.57 5.41 0.55 5.41 0.54128 5.41034 C 0.53 5.41 0.51 5.42 0.49554 5.42563 C 0.48 5.43 0.46 5.44 0.45101 5.454 C 0.44 5.46 0.43 5.47 0.41917 5.48709 C 0.41 5.5 0.4 5.51 0.39601 5.52518 C 0.39 5.54 0.38 5.55 0.38166 5.5669 C 0.38 5.58 0.38 5.6 0.3765 5.60957 C 0.38 5.64 0.38 5.67 0.3764 5.69765 C 0.38 5.72 0.38 5.75 0.37261 5.77025 C 0.37 5.79 0.36 5.8 0.35852 5.81822 C 0.35 5.83 0.34 5.85 0.33446 5.86208 C 0.32 5.88 0.31 5.89 0.29359 5.90655 C 0.28 5.92 0.27 5.93 0.25239 5.93423 C 0.24 5.94 0.22 5.95 0.209 5.95162 C 0.19 5.96 0.18 5.96 0.16272 5.95997 C 0.14 5.96 0.12 5.96 0.09607 5.96073 L 0.09607 5.96073 Z" />
    <path d="M -4.76811 5.93637 C -4.68 5.94 -4.59 5.94 -4.5069 5.93637 L -4.5153 5.90503 L -4.71864 5.90503 L -4.71024 5.93637 L -4.74067 5.93637 L -4.74891 5.90503 L -4.76849 5.90503 C -4.87 5.91 -4.94 5.83 -4.94392 5.7296 L -4.94392 4.91045 C -4.94 4.81 -4.87 4.74 -4.76849 4.73502 L -4.30154 4.73502 C -4.16 4.74 -4.04 4.62 -4.0384 4.47188 L -4.0384 3.47868 C -4.04 3.33 -4.16 3.22 -4.30154 3.21555 L -4.76849 3.21555 C -4.87 3.22 -4.94 3.14 -4.94392 3.04012 L -4.94392 2.88433 L -4.94392 2.77137 L -4.94392 2.22096 C -4.94 2.12 -4.87 2.05 -4.76849 2.04554 L -4.74943 2.04554 L -4.74122 2.0149 L -4.76664 2.0149 C -4.77 2.01 -4.77 2.02 -4.77516 2.01494 C -4.79 2.02 -4.81 2.02 -4.82505 2.02277 C -4.84 2.03 -4.86 2.03 -4.86995 2.04158 C -4.89 2.05 -4.9 2.06 -4.9122 2.07325 C -4.92 2.08 -4.93 2.1 -4.94145 2.10867 C -4.95 2.12 -4.96 2.14 -4.9629 2.15187 C -4.97 2.17 -4.97 2.19 -4.97422 2.20343 C -4.98 2.22 -4.97 2.24 -4.97514 2.26132 L -4.97514 2.88788 L -4.97514 3.00085 L -4.97514 3.00086 L -4.97514 3.04724 C -4.97 3.05 -4.97 3.06 -4.97361 3.06741 C -4.97 3.08 -4.97 3.09 -4.96511 3.10694 C -4.96 3.12 -4.95 3.14 -4.94301 3.15438 C -4.93 3.17 -4.92 3.18 -4.91267 3.19188 C -4.9 3.2 -4.89 3.21 -4.87999 3.21797 C -4.87 3.23 -4.86 3.23 -4.84182 3.23721 C -4.83 3.24 -4.81 3.25 -4.79506 3.24902 C -4.77 3.25 -4.75 3.25 -4.72985 3.25088 C -4.59 3.25 -4.44 3.25 -4.29902 3.25092 C -4.28 3.25 -4.27 3.25 -4.25528 3.25538 C -4.24 3.26 -4.22 3.26 -4.21017 3.26926 C -4.19 3.28 -4.18 3.28 -4.16461 3.29501 C -4.15 3.31 -4.14 3.32 -4.12378 3.33292 C -4.11 3.35 -4.1 3.36 -4.09621 3.37351 C -4.09 3.39 -4.08 3.4 -4.0782 3.41774 C -4.07 3.43 -4.07 3.45 -4.06946 3.46825 C -4.07 3.49 -4.07 3.51 -4.06896 3.53665 C -4.07 3.85 -4.07 4.16 -4.06899 4.47517 C -4.07 4.49 -4.07 4.5 -4.07339 4.51892 C -4.08 4.53 -4.08 4.55 -4.08717 4.56405 C -4.09 4.58 -4.1 4.6 -4.1131 4.61004 C -4.12 4.63 -4.14 4.64 -4.15204 4.65177 C -4.17 4.66 -4.18 4.67 -4.19629 4.68085 C -4.21 4.69 -4.23 4.69 -4.24127 4.6979 C -4.26 4.7 -4.28 4.71 -4.29691 4.70559 C -4.39 4.71 -4.49 4.71 -4.58762 4.70566 L -4.77152 4.70566 C -4.78 4.71 -4.79 4.71 -4.7935 4.70738 C -4.81 4.71 -4.82 4.71 -4.83862 4.71817 C -4.85 4.72 -4.87 4.73 -4.88175 4.73975 C -4.89 4.75 -4.9 4.76 -4.91422 4.76612 C -4.92 4.78 -4.93 4.79 -4.94171 4.80004 C -4.95 4.81 -4.96 4.83 -4.96165 4.8394 C -4.97 4.85 -4.97 4.87 -4.97334 4.88618 C -4.98 4.91 -4.97 4.93 -4.97514 4.95048 L -4.97514 5.73273 C -4.97 5.74 -4.97 5.75 -4.97361 5.7529 C -4.97 5.77 -4.97 5.78 -4.96511 5.79243 C -4.96 5.81 -4.95 5.83 -4.94301 5.83987 C -4.93 5.85 -4.92 5.87 -4.91268 5.87737 C -4.9 5.89 -4.89 5.9 -4.87998 5.90346 C -4.87 5.91 -4.86 5.92 -4.84224 5.92253 C -4.83 5.93 -4.81 5.93 -4.79506 5.93451 C -4.79 5.94 -4.78 5.94 -4.76811 5.93637 L -4.76811 5.93637 C -4.68 5.94 -4.59 5.94 -4.5069 5.93637" />
    <path d="M -4.47664 5.93637 C -4.41 5.94 -4.34 5.94 -4.2718 5.93637 L -4.2802 5.90503 L -4.48503 5.90503 L -4.47664 5.93637 Z" />
    <path d="M -4.24153 5.93637 C -4.17 5.94 -4.11 5.94 -4.03745 5.93637 L -4.04585 5.90503 L -4.24993 5.90503 L -4.24153 5.93637 Z" />
    <path d="M -4.00718 5.93637 C -2.62 5.94 -1.24 5.94 0.14552 5.93637 C 0.16 5.94 0.17 5.93 0.18711 5.93196 C 0.2 5.93 0.22 5.92 0.23286 5.91668 C 0.25 5.91 0.26 5.9 0.27738 5.88832 C 0.29 5.88 0.3 5.87 0.30922 5.85522 C 0.32 5.84 0.33 5.83 0.33389 5.81378 C 0.34 5.8 0.34 5.79 0.34784 5.77 C 0.35 5.75 0.35 5.73 0.352 5.71556 C 0.35 5.68 0.35 5.64 0.35212 5.60879 C 0.35 5.59 0.35 5.58 0.35803 5.56098 C 0.36 5.55 0.37 5.53 0.37368 5.5155 C 0.38 5.5 0.39 5.48 0.40286 5.46838 C 0.42 5.45 0.43 5.44 0.4466 5.42651 C 0.46 5.42 0.47 5.41 0.48964 5.40152 C 0.5 5.4 0.52 5.39 0.53466 5.38683 C 0.55 5.38 0.57 5.38 0.58158 5.38164 C 0.71 5.38 0.83 5.38 0.95647 5.38158 C 1.16 5.38 1.37 5.38 1.56956 5.38156 L 1.56719 5.37813 L 1.5471 5.34905 L 0.58166 5.34905 L 0.58166 5.34982 C 0.44 5.35 0.32 5.47 0.31853 5.61296 L 0.31853 5.7296 C 0.32 5.83 0.24 5.91 0.1431 5.90503 L -4.01558 5.90503 L -4.00718 5.93637 Z" />
    <path d="M -4.76849 5.87579 L -4.75674 5.87579 L -4.75727 5.87383 L -4.91468 5.28635 L -4.91468 5.7296 C -4.91 5.81 -4.85 5.88 -4.76849 5.87579 Z" />
    <path d="M -4.72647 5.87579 L -4.52314 5.87579 L -4.81746 4.77738 C -4.87 4.8 -4.91 4.85 -4.91468 4.91045 L -4.91468 5.17339 L -4.727 5.87383 L -4.72647 5.87579 Z" />
    <path d="M -4.49287 5.87579 L -4.28803 5.87579 L -4.58587 4.76426 L -4.76849 4.76426 C -4.78 4.77 -4.78 4.77 -4.78921 4.76981 L -4.49287 5.87579 Z" />
    <path d="M -4.25776 5.87579 L -4.05368 5.87579 L -4.35152 4.76426 L -4.5556 4.76426 L -4.25776 5.87579 Z" />
    <path d="M -4.02341 5.87579 L 0.1431 5.87579 C 0.22 5.88 0.29 5.81 0.28929 5.7296 L 0.28929 5.61296 C 0.29 5.45 0.42 5.32 0.58166 5.32059 L 1.52743 5.32059 L 1.52553 5.31783 L 0.61111 3.99424 C 0.6 3.97 0.6 3.97 0.61111 3.95357 L 1.52553 2.62998 L 0.58166 2.62998 C 0.42 2.63 0.29 2.5 0.28929 2.3376 L 0.28929 2.22096 C 0.29 2.14 0.22 2.07 0.1431 2.07477 L -4.02393 2.07477 L -4.32177 3.18631 L -4.30154 3.18631 C -4.14 3.19 -4.01 3.32 -4.00916 3.47868 L -4.00916 4.47188 C -4.01 4.63 -4.14 4.76 -4.30154 4.76426 L -4.32124 4.76426 L -4.02341 5.87579 Z" />
    <path d="M 1.6051 5.38157 C 1.67 5.38 1.74 5.38 1.80136 5.38156 L 1.79898 5.37812 L 1.7789 5.34905 L 1.58263 5.34905 L 1.60273 5.37813 L 1.6051 5.38157 Z" />
    <path d="M 1.8369 5.38156 C 1.9 5.38 1.97 5.38 2.03567 5.38155 L 2.03327 5.37808 L 2.01321 5.34905 L 1.81444 5.34905 L 1.83452 5.37811 L 1.8369 5.38156 Z" />
    <path d="M 2.0712 5.38155 C 2.09 5.38 2.11 5.38 2.134 5.38155 C 2.15 5.38 2.16 5.38 2.1756 5.3771 C 2.19 5.37 2.21 5.37 2.22129 5.36169 C 2.23 5.36 2.24 5.35 2.24424 5.34702 L 2.2428 5.34494 L 2.22688 5.32189 C 2.2 5.34 2.17 5.35 2.13393 5.34905 L 2.04875 5.34905 L 2.06881 5.37808 L 2.0712 5.38155 Z" />
    <path d="M 2.26836 5.3305 C 2.28 5.32 2.29 5.31 2.2992 5.29786 C 2.31 5.29 2.31 5.27 2.32041 5.26234 C 2.33 5.25 2.33 5.23 2.33477 5.22063 C 2.34 5.21 2.34 5.19 2.33997 5.17682 C 2.34 5.17 2.34 5.16 2.33997 5.14415 L 2.30935 5.09983 L 2.30935 5.17362 L 2.30935 5.17362 C 2.31 5.22 2.29 5.27 2.25013 5.30411 L 2.26647 5.32775 L 2.26836 5.3305 Z" />
    <path d="M 1.56297 5.32059 L 1.75924 5.32059 L 1.75734 5.31783 L 0.84291 3.99424 C 0.83 3.97 0.83 3.97 0.84291 3.95357 L 1.75734 2.62998 L 1.56107 2.62998 L 0.63516 3.97019 C 0.63 3.97 0.63 3.98 0.63516 3.97762 L 1.56107 5.31783 L 1.56297 5.32059 Z" />
    <path d="M 1.79477 5.32059 L 1.99355 5.32059 L 1.99164 5.31783 L 1.07722 3.99424 C 1.06 3.97 1.06 3.97 1.07722 3.95357 L 1.99164 2.62998 L 1.79287 2.62998 L 0.86696 3.97019 C 0.87 3.97 0.87 3.98 0.86696 3.97763 L 1.79287 5.31783 L 1.79477 5.32059 Z" />
    <path d="M 2.02908 5.32059 L 2.13393 5.32059 L 2.13393 5.31981 C 2.16 5.32 2.19 5.31 2.21023 5.2978 L 2.20879 5.2957 L 1.30965 3.99424 C 1.3 3.97 1.3 3.97 1.30965 3.95357 L 2.20879 2.6521 C 2.19 2.64 2.16 2.63 2.13393 2.63075 L 2.13393 2.62998 L 2.02718 2.62998 L 1.10127 3.97019 C 1.1 3.97 1.1 3.98 1.10127 3.97763 L 2.02718 5.31783 L 2.02908 5.32059 Z" />
    <path d="M 2.23353 5.28008 C 2.26 5.25 2.28 5.21 2.28011 5.17362 L 2.28011 5.17362 L 2.28011 5.05751 L 1.54553 3.99424 C 1.53 3.97 1.53 3.97 1.54553 3.95357 L 2.28011 2.8903 L 2.28011 2.77694 L 2.28011 2.77694 C 2.28 2.74 2.26 2.7 2.2298 2.67312 L 1.3337 3.97019 C 1.33 3.97 1.33 3.98 1.3337 3.97762 L 2.2298 5.27469 L 2.23353 5.28008 Z" />
    <path d="M 2.33998 5.09273 C 2.34 5 2.34 4.9 2.34002 4.80803 L 2.30937 4.76367 L 2.30937 4.76367 L 2.30937 5.04839 L 2.33998 5.09273 Z" />
    <path d="M 2.34002 4.7566 L 2.34002 3.19119 L 2.30935 3.23558 L 2.30935 3.23558 L 2.30935 4.71223 L 2.30935 4.71223 L 2.34002 4.7566 Z" />
    <path d="M 2.28013 4.66991 L 2.28013 3.2779 L 1.80183 3.97019 C 1.8 3.97 1.8 3.98 1.80183 3.97762 L 2.28013 4.66991 Z" />
    <path d="M -4.76849 3.18631 L -4.58639 3.18631 L -4.28855 2.07477 L -4.49339 2.07477 L -4.7897 3.18063 C -4.78 3.18 -4.78 3.18 -4.76849 3.18631 Z" />
    <path d="M -4.55612 3.18631 L -4.35204 3.18631 L -4.0542 2.07477 L -4.25829 2.07477 L -4.55612 3.18631 Z" />
    <path d="M -4.81795 3.17306 L -4.52366 2.07477 L -4.727 2.07477 L -4.91468 2.77522 L -4.91468 3.04012 C -4.91 3.1 -4.87 3.15 -4.81795 3.17306 Z" />
    <path d="M 2.30935 2.84798 L 2.34002 2.80359 C 2.34 2.79 2.34 2.78 2.34002 2.7752 C 2.34 2.76 2.34 2.75 2.33543 2.73362 C 2.33 2.72 2.33 2.7 2.31993 2.68794 C 2.31 2.67 2.31 2.66 2.296 2.64927 C 2.29 2.64 2.28 2.63 2.26647 2.62006 L 2.24892 2.64546 C 2.29 2.68 2.31 2.73 2.30935 2.77694 L 2.30935 2.77694 L 2.30935 2.84798 Z" />
    <path d="M -4.91468 2.66225 L -4.75727 2.07477 L -4.76849 2.07477 C -4.85 2.07 -4.91 2.14 -4.91468 2.22096 L -4.91468 2.66225 Z" />
    <path d="M 2.22549 2.62793 L 2.2428 2.60287 C 2.23 2.6 2.23 2.59 2.21698 2.58757 C 2.2 2.58 2.19 2.58 2.17724 2.57449 C 2.16 2.57 2.15 2.57 2.13477 2.56974 C 2.11 2.57 2.09 2.57 2.06881 2.56973 L 2.04685 2.60152 L 2.13393 2.60152 C 2.17 2.6 2.2 2.61 2.22549 2.62793 L 2.22549 2.62793 Z" />
    <path d="M 0.58166 2.60152 L 1.5452 2.60152 L 1.56719 2.56968 C 1.24 2.57 0.91 2.57 0.58253 2.56965 C 0.57 2.57 0.55 2.57 0.53878 2.56526 C 0.52 2.56 0.51 2.56 0.49365 2.55147 C 0.48 2.54 0.46 2.54 0.44804 2.52583 C 0.43 2.51 0.42 2.5 0.40593 2.48661 C 0.39 2.47 0.38 2.46 0.37685 2.44235 C 0.37 2.43 0.36 2.41 0.3598 2.39738 C 0.35 2.38 0.35 2.36 0.35211 2.34173 C 0.35 2.3 0.35 2.26 0.35192 2.21857 C 0.35 2.2 0.35 2.19 0.34603 2.17301 C 0.34 2.16 0.34 2.14 0.32735 2.12412 C 0.32 2.11 0.31 2.1 0.29976 2.08457 C 0.29 2.07 0.28 2.06 0.26901 2.05621 C 0.26 2.05 0.25 2.04 0.23231 2.0343 C 0.22 2.03 0.2 2.02 0.18606 2.01911 C 0.17 2.02 0.15 2.01 0.13348 2.0149 L -4.00789 2.0149 L -4.0161 2.04554 L 0.1431 2.04554 C 0.24 2.05 0.32 2.12 0.31853 2.22096 L 0.31853 2.3376 C 0.32 2.48 0.44 2.6 0.58166 2.60074 L 0.58166 2.60152 Z" />
    <path d="M 1.58073 2.60152 L 1.777 2.60152 L 1.79898 2.56969 C 1.77 2.57 1.75 2.57 1.72277 2.56968 C 1.68 2.57 1.64 2.57 1.60273 2.56968 L 1.60273 2.56968 L 1.58073 2.60152 Z" />
    <path d="M 1.81253 2.60152 L 2.01131 2.60152 L 2.03327 2.56973 C 1.97 2.57 1.9 2.57 1.83452 2.5697 L 1.81253 2.60152 Z" />
    <path d="M -4.71916 2.04554 L -4.51583 2.04554 L -4.50762 2.0149 L -4.71095 2.0149 L -4.71916 2.04554 Z" />
    <path d="M -4.48556 2.04554 L -4.28072 2.04554 L -4.27251 2.0149 L -4.47735 2.0149 L -4.48556 2.04554 Z" />
    <path d="M -4.25045 2.04554 L -4.04637 2.04554 L -4.03816 2.0149 L -4.24224 2.0149 L -4.25045 2.04554 Z" />
</svg>